# Blender v3.0.0 OBJ File: 'bagoly_fej.blend'
# www.blender.org
mtllib bagoly_fej.mtl
o bagolyfej(1)
v -11.856808 -10.841335 0.725818
v -9.828105 -9.262167 10.328558
v -15.133001 -5.265100 8.942557
v 0.000000 3.102350 9.994138
v -2.299085 2.163760 5.923920
v -2.874581 -3.990427 9.681472
v -12.443958 6.175741 11.671468
v -11.127451 9.089332 8.024856
v -13.756081 4.101891 -0.382002
v -6.730851 -10.952610 -13.107093
v 0.000000 -11.295457 9.732838
v -7.173227 -11.069269 8.607891
v -6.563313 7.003565 10.286939
v -9.359879 12.697321 11.231649
v 0.000000 -8.162129 7.447031
v 0.000000 -5.089481 12.579949
v -12.617750 -3.323880 -7.894162
v -9.048870 -3.323879 -13.958422
v -8.364992 3.102354 -13.184432
v 0.000000 -3.323880 -16.726868
v -8.093514 -1.119421 10.177740
v -5.548059 10.193331 -10.001389
v 0.000000 3.264392 -15.686861
v 0.000000 -10.952611 -17.285711
v -10.013557 -10.931295 -7.626160
v -11.858215 3.473733 -7.894161
v -8.270452 10.193330 -7.894160
v 0.000000 9.359035 3.663646
v -4.696645 9.408450 3.853423
v 0.000000 14.112343 -1.137848
v -10.445073 9.992413 -0.897129
v -10.568511 7.976898 -1.104658
v -7.962337 12.027073 -0.901988
v -13.659300 15.767467 8.492806
v -10.923498 11.934959 -1.511148
v 0.000000 -1.428961 11.945694
v -14.772604 -4.433089 1.726303
v 0.000000 10.213774 -11.572506
v 11.856808 -10.841335 0.725818
v 9.828105 -9.262167 10.328558
v 15.133001 -5.265100 8.942557
v 15.817673 -15.077587 -9.500098
v 2.299085 2.163760 5.923920
v 2.874581 -3.990427 9.681472
v 12.443958 6.175741 11.671468
v 11.127451 9.089332 8.024856
v 13.756081 4.101891 -0.382002
v 6.730851 -10.952610 -13.107093
v 7.173227 -11.069269 8.607891
v 11.233551 -15.239316 10.234096
v 6.563313 7.003565 10.286939
v 9.359879 12.697321 11.231649
v 10.941839 -15.122655 -16.784286
v 12.617750 -3.323880 -7.894162
v 16.141642 -15.011381 0.672728
v 9.048870 -3.323879 -13.958422
v 8.364992 3.102354 -13.184432
v -16.141642 -15.011381 0.672728
v -10.941839 -15.122655 -16.784286
v 0.000000 -15.465503 12.582269
v -11.233551 -15.239316 10.234096
v 0.000000 -15.122657 -19.439850
v 14.772604 -4.433089 1.726303
v 8.093514 -1.119421 10.177740
v -15.817673 -15.077587 -9.500098
v 5.548059 10.193331 -10.001389
v 10.013557 -10.931295 -7.626160
v 11.858215 3.473733 -7.894161
v 10.923498 11.934959 -1.511148
v 8.270452 10.193330 -7.894160
v 13.659300 15.767467 8.492806
v 4.696645 9.408450 3.853423
v 7.962337 12.027073 -0.901988
v 10.568511 7.976898 -1.104658
v 10.445073 9.992413 -0.897129
vt 0.482135 0.000000
vt 1.000000 0.000000
vt 1.000000 0.750000
vt 0.500000 0.750000
vt 0.375000 0.750000
vt 0.250000 0.500000
vt 1.000000 1.000000
vt 0.812346 1.000000
vt 0.439404 0.860660
vt 0.250000 0.500000
vt 0.500000 0.618540
vt 0.500000 0.500000
vt 0.250000 0.000000
vt 0.375000 0.000000
vt 0.250000 0.373061
vt 0.250000 0.263113
vt 0.750000 0.000000
vt 1.000000 0.500000
vt 0.750000 0.500000
vt 0.125000 0.000000
vt 0.750000 0.750000
vt 0.625000 0.500000
vt 0.000000 1.000000
vt 0.125000 0.750000
vt 0.750000 1.000000
vt 0.625000 0.750000
vt 0.625000 0.000000
vt 0.250000 1.000000
vt 0.000000 0.000000
vt 0.022809 0.182472
vt 0.875000 0.750000
vt 0.857724 1.000000
vt 0.000000 0.750000
vt 0.250000 0.000000
vt 0.438868 0.510942
vt 0.348246 0.265784
vt 0.474752 0.798016
vt 0.077689 0.558024
vt 0.012554 0.550046
vt 0.250000 1.000000
vt 0.197922 0.638016
vt 0.115708 0.346418
vt 0.127662 0.640480
vt 0.142276 1.000000
vt 0.571398 0.642849
vt 0.000000 1.000000
vt 0.000000 0.751443
vt 0.000000 0.500000
vt 0.000000 0.000000
vt 0.447102 1.000000
vt 0.750000 0.000000
vt 0.875000 0.000000
vt 0.939733 0.517865
vt 0.500000 0.000000
vt 0.500000 0.000000
vt 0.250000 0.000000
vt 0.250000 0.000000
vt 0.822688 0.815290
vt 0.826846 0.804726
vt 0.939733 0.517865
vt 0.500000 1.000000
vt 1.000000 0.000000
vt 0.482135 0.000000
vt 1.000000 0.750000
vt 1.000000 0.000000
vt 0.348246 0.265784
vt 0.375000 0.750000
vt 0.000000 1.000000
vt 0.250000 1.000000
vt 0.750000 1.000000
vt 0.750000 0.000000
vt 0.077689 0.558024
vt 0.012554 0.550046
vt 0.142276 1.000000
vt 0.125000 0.750000
vt 0.125000 0.000000
vt 0.000000 0.750000
vt 0.571398 0.642849
vt 0.439404 0.860660
vt 0.750000 0.000000
vt 0.750000 0.500000
vt 1.000000 0.500000
vt 0.250000 0.000000
vt 0.022809 0.182472
vt 0.250000 0.373061
vt 0.939733 0.517865
vt 0.939733 0.517865
vt 0.826846 0.804726
vt 0.822688 0.815290
vt 0.197922 0.638016
vt 0.250000 1.000000
vt 0.000000 0.000000
vt 0.750000 0.750000
vt 1.000000 1.000000
vt 0.000000 0.500000
vt 0.857724 1.000000
vt 0.875000 0.750000
vt 1.000000 0.000000
vt 0.127662 0.640480
vt 0.000000 1.000000
vt 0.447102 1.000000
vt 0.000000 0.751443
vt 0.750000 0.000000
vt 0.875000 0.000000
vt 0.115708 0.346418
vt 0.750000 1.000000
vt 0.000000 0.000000
vt 0.812346 1.000000
vt 0.250000 0.000000
vt 0.750000 1.000000
vt 0.750000 1.000000
vt 0.750000 0.000000
vt 0.625000 1.000000
vt 0.750000 0.000000
vt 0.625000 0.000000
vt 0.750000 0.000000
vt 0.750000 1.000000
vn -0.9832 0.1702 0.0651
vn -0.2400 -0.5122 0.8246
vn -0.8128 -0.2381 0.5316
vn 0.0000 0.1620 0.9868
vn -0.3322 -0.1403 0.9327
vn -0.4745 0.0633 0.8780
vn -0.4623 0.3554 0.8124
vn -0.9061 0.1393 0.3993
vn -0.9337 0.3375 -0.1193
vn 0.4745 0.0633 0.8780
vn 0.0000 0.3127 0.9498
vn 0.0000 -0.4050 0.9143
vn -0.0565 -0.2960 0.9535
vn 0.0602 0.4696 0.8808
vn 0.0000 -0.0847 0.9964
vn -0.6250 0.2968 -0.7220
vn -0.9236 -0.1107 -0.3669
vn -0.6483 -0.0378 -0.7604
vn -0.5542 0.3068 -0.7737
vn 0.0000 0.1128 -0.9936
vn 0.3483 -0.0548 0.9358
vn -0.3010 0.7487 -0.5906
vn 0.0000 0.3263 -0.9452
vn 0.0000 0.3620 -0.9322
vn -0.8779 0.2741 -0.3925
vn -0.5650 0.7170 -0.4083
vn -0.2577 0.0490 0.9650
vn 0.0000 0.7109 0.7032
vn 0.3451 0.8424 0.4137
vn 0.0000 0.9847 0.1740
vn -0.9732 -0.1238 -0.1939
vn -0.9026 0.4099 -0.1317
vn 0.0421 0.9962 -0.0759
vn -0.6139 0.7222 0.3184
vn -0.7538 0.5022 -0.4236
vn -0.9790 -0.1500 -0.1378
vn -0.8830 0.3189 -0.3442
vn 0.0000 0.5567 0.8307
vn 0.0000 -0.4549 0.8905
vn 0.6218 -0.3296 0.7105
vn 0.2577 0.0490 0.9650
vn -0.9114 -0.2655 -0.3142
vn -0.9429 -0.2888 0.1656
vn 0.0000 0.7394 -0.6732
vn 0.9832 0.1702 0.0651
vn 0.8128 -0.2381 0.5316
vn 0.2400 -0.5122 0.8246
vn -0.3451 0.8424 0.4137
vn 0.3322 -0.1403 0.9327
vn 0.4623 0.3554 0.8124
vn 0.0565 -0.2960 0.9535
vn 0.6096 -0.2986 -0.7343
vn 0.9732 -0.1238 -0.1939
vn 0.9026 0.4099 -0.1317
vn 0.5650 0.7170 -0.4083
vn -0.3483 -0.0548 0.9358
vn 0.9790 -0.1500 -0.1378
vn 0.9337 0.3375 -0.1193
vn 0.6250 0.2968 -0.7220
vn 0.6483 -0.0378 -0.7604
vn 0.9236 -0.1107 -0.3669
vn 0.9061 0.1393 0.3993
vn -0.0602 0.4696 0.8808
vn 0.9429 -0.2888 0.1656
vn 0.9114 -0.2655 -0.3142
vn 0.8830 0.3189 -0.3442
vn -0.0421 0.9962 -0.0759
vn 0.3010 0.7487 -0.5906
vn 0.5542 0.3068 -0.7737
vn 0.8779 0.2741 -0.3925
vn 0.7538 0.5022 -0.4236
vn 0.6139 0.7222 0.3184
vn -0.6218 -0.3296 0.7105
vn -0.6096 -0.2986 -0.7343
vn 0.0000 -0.3494 -0.9369
usemtl Default_OBJ
s 1
f 1/1/1 2/2/2 3/3/3
f 4/4/4 5/5/5 6/6/6
f 7/7/7 8/8/8 9/9/9
f 44/10/10 36/11/11 16/12/12
f 13/13/13 4/14/4 14/15/14
f 15/16/15 16/12/12 6/6/6
f 10/17/16 17/18/17 18/19/18
f 5/5/5 2/20/2 6/6/6
f 19/21/19 20/22/20 18/19/18
f 7/23/7 21/24/21 5/5/5
f 22/25/22 23/26/23 19/21/19
f 24/27/24 18/19/18 20/22/20
f 4/4/4 13/28/13 5/5/5
f 7/29/7 13/13/13 8/30/8
f 15/16/15 6/6/6 2/20/2
f 26/31/25 18/19/18 17/18/17
f 27/32/26 19/21/19 26/31/25
f 21/24/21 3/33/3 2/20/2
f 7/23/7 3/33/3 21/24/21
f 2/20/2 12/34/27 15/16/15
f 4/14/4 28/35/28 29/36/29
f 29/36/29 28/35/28 30/37/30
f 5/5/5 21/24/21 2/20/2
f 13/13/13 14/15/14 8/30/8
f 8/30/8 31/38/31 32/39/32
f 5/5/5 13/28/13 7/23/7
f 30/37/30 22/40/22 33/41/33
f 31/38/31 34/42/34 35/43/35
f 34/42/34 14/15/14 29/36/29
f 4/14/4 29/36/29 14/15/14
f 14/15/14 34/42/34 8/30/8
f 6/6/6 36/11/11 4/4/4
f 34/42/34 33/41/33 35/43/35
f 33/41/33 27/44/26 35/43/35
f 29/36/29 30/37/30 33/41/33
f 35/43/35 27/44/26 31/38/31
f 31/38/31 27/44/26 32/39/32
f 31/38/31 8/30/8 34/42/34
f 37/45/36 3/3/3 9/9/9
f 27/46/26 26/47/25 9/9/9
f 9/9/9 17/48/17 37/45/36
f 17/48/17 25/49/37 1/1/1
f 3/3/3 37/45/36 1/1/1
f 1/1/1 37/45/36 17/48/17
f 3/3/3 7/7/7 9/9/9
f 8/8/8 32/50/32 9/9/9
f 9/9/9 32/50/32 27/46/26
f 9/9/9 26/47/25 17/48/17
f 12/51/27 2/52/2 1/53/1
f 11/54/38 60/55/39 50/56/40 49/57/41
f 1/53/1 25/58/37 65/59/42 58/60/43
f 12/34/27 11/54/38 15/16/15
f 29/36/29 33/41/33 34/42/34
f 33/41/33 22/40/22 27/44/26
f 30/37/30 38/61/44 22/40/22
f 27/32/26 22/25/22 19/21/19
f 19/21/19 23/26/23 20/22/20
f 22/25/22 38/61/44 23/26/23
f 26/31/25 19/21/19 18/19/18
f 24/27/24 10/17/16 18/19/18
f 10/17/16 25/62/37 17/18/17
f 6/6/6 16/12/12 36/11/11
f 39/63/45 41/64/46 40/65/47
f 4/14/4 72/66/48 28/35/28
f 43/67/49 45/68/50 51/69/51
f 53/70/52 50/71/40 60/55/39
f 75/72/53 74/73/54 70/74/55
f 64/75/56 40/76/47 41/77/46
f 63/78/57 47/79/58 41/64/46
f 48/80/59 56/81/60 54/82/61
f 51/83/51 46/84/62 52/85/63
f 15/16/15 40/76/47 44/10/10
f 39/86/45 55/87/64 42/88/65 67/89/66
f 30/37/30 73/90/67 66/91/68
f 15/16/15 44/10/10 16/12/12
f 4/4/4 44/10/10 43/67/49
f 45/92/50 46/84/62 51/83/51
f 57/93/69 56/81/60 20/22/20
f 73/90/67 70/74/55 66/91/68
f 41/64/46 47/79/58 45/94/50
f 39/63/45 54/95/61 63/78/57
f 70/96/55 68/97/70 57/93/69
f 45/68/50 64/75/56 41/77/46
f 48/80/59 54/82/61 67/98/66
f 69/99/71 75/72/53 70/74/55
f 47/79/58 70/100/55 74/101/54
f 46/84/62 74/73/54 75/72/53
f 45/68/50 43/67/49 64/75/56
f 73/90/67 69/99/71 70/74/55
f 72/66/48 73/90/67 30/37/30
f 72/66/48 30/37/30 28/35/28
f 47/79/58 54/95/61 68/102/70
f 44/10/10 4/4/4 36/11/11
f 49/103/41 39/86/45 40/104/47
f 43/67/49 44/10/10 40/76/47
f 71/105/72 72/66/48 52/85/63
f 49/103/41 50/71/40 55/87/64 39/86/45
f 41/64/46 39/63/45 63/78/57
f 66/106/68 57/93/69 23/26/23
f 54/95/61 39/63/45 67/107/66
f 75/72/53 69/99/71 71/105/72
f 52/85/63 46/84/62 71/105/72
f 24/27/24 56/81/60 48/80/59
f 45/94/50 47/79/58 46/108/62
f 49/57/41 15/16/15 11/54/38
f 71/105/72 69/99/71 73/90/67
f 40/76/47 15/16/15 49/57/41
f 43/67/49 40/76/47 64/75/56
f 66/106/68 23/26/23 38/61/44
f 68/97/70 56/81/60 57/93/69
f 57/93/69 20/22/20 23/26/23
f 68/97/70 54/82/61 56/81/60
f 11/54/38 12/34/27 61/109/73 60/55/39
f 42/88/65 53/70/52 48/110/59 67/89/66
f 4/14/4 52/85/63 72/66/48
f 75/72/53 71/105/72 46/84/62
f 4/4/4 43/67/49 51/69/51
f 70/96/55 57/93/69 66/106/68
f 72/66/48 71/105/72 73/90/67
f 70/100/55 47/79/58 68/102/70
f 47/79/58 63/78/57 54/95/61
f 46/108/62 47/79/58 74/101/54
f 24/27/24 20/22/20 56/81/60
f 30/37/30 66/91/68 38/61/44
f 51/83/51 52/85/63 4/14/4
f 59/111/74 60/55/39 61/112/73
f 59/111/74 61/112/73 58/60/43 65/59/42
f 59/111/74 62/113/75 60/55/39
f 48/80/59 53/114/52 62/115/75 24/27/24
f 53/70/52 42/88/65 55/87/64 50/71/40
f 53/70/52 60/55/39 62/113/75
f 12/51/27 1/53/1 58/60/43 61/112/73
f 10/17/16 24/27/24 62/115/75 59/116/74
f 65/59/42 25/58/37 10/117/16 59/111/74
